#!OML:ASF H:\Dans Jumps\Project 1\Capture day 1\Session 1\subject.ASF
:FULLY-SPECIFIED
:DEGREES
70
root 0.479289 17.5365 -14.1214 6.18559 -1.10325 -1.62384
lowerback -1.92145 -0.272179 0.0555207
upperback 3.30374 -0.428794 1.56004
thorax 4.49528 -0.241038 1.55465
lowerneck -13.8584 -0.383219 -2.67141
upperneck 28.1489 -0.579144 2.45829
head 11.457 -0.242737 1.28421
rclavicle -5.06901e-015 1.51076e-014
rhumerus -22.498 -18.9202 -79.7442
rradius 22.2497
rwrist 36.1324
rhand -17.4196 -26.0083
rfingers 7.12502
rthumb 8.83042 -55.8036
lclavicle -5.06901e-015 1.51076e-014
lhumerus -20.0689 6.09255 85.1196
lradius 16.8289
lwrist -2.67977
lhand -23.7 -2.69793
lfingers 7.12502
lthumb 2.76713 27.2639
rfemur -13.17 -2.147 19.3317
rtibia 21.3531
rfoot -13.4019 -3.12077
rtoes 6.29225
lfemur -12.6559 7.33068 -17.8543
ltibia 20.0535
lfoot -11.378 5.0292
ltoes -0.473054
71
root 0.478838 17.5362 -14.1225 6.18688 -1.0993 -1.6178
lowerback -1.9152 -0.271772 0.0511398
upperback 3.30883 -0.428011 1.55832
thorax 4.49702 -0.240791 1.5554
lowerneck -13.8614 -0.380151 -2.67113
upperneck 28.1642 -0.572109 2.44887
head 11.4633 -0.240727 1.28185
rclavicle -4.67144e-015 -4.96962e-015
rhumerus -22.4874 -18.9259 -79.7469
rradius 22.2495
rwrist 36.1465
rhand -17.4195 -26.0138
rfingers 7.12502
rthumb 8.83054 -55.8091
lclavicle -4.67144e-015 -4.96962e-015
lhumerus -20.0582 6.10726 85.1273
lradius 16.8284
lwrist -2.69462
lhand -23.702 -2.709
lfingers 7.12502
lthumb 2.76517 27.2528
rfemur -13.183 -2.15105 19.3284
rtibia 21.3632
rfoot -13.3973 -3.13396
rtoes 6.21727
lfemur -12.6659 7.32833 -17.8602
ltibia 20.06
lfoot -11.3753 5.02817
ltoes -0.49686
72
root 0.478398 17.5361 -14.1236 6.18796 -1.09502 -1.61264
lowerback -1.90929 -0.271814 0.0476454
upperback 3.31337 -0.427858 1.55657
thorax 4.4984 -0.240824 1.55558
lowerneck -13.8601 -0.377042 -2.67048
upperneck 28.1777 -0.565066 2.43898
head 11.468 -0.238752 1.27921
rclavicle 1.49089e-015 -1.37161e-014
rhumerus -22.4791 -18.926 -79.7508
rradius 22.2526
rwrist 36.1567
rhand -17.4148 -26.0228
rfingers 7.12502
rthumb 8.8351 -55.8178
lclavicle 1.49089e-015 -1.37161e-014
lhumerus -20.0489 6.12416 85.1333
lradius 16.8274
lwrist -2.70889
lhand -23.699 -2.72408
lfingers 7.12502
lthumb 2.76807 27.2377
rfemur -13.1934 -2.15415 19.3255
rtibia 21.3723
rfoot -13.3947 -3.14302
rtoes 6.17648
lfemur -12.6738 7.32567 -17.8646
ltibia 20.0641
lfoot -11.3721 5.02489
ltoes -0.507882
73
root 0.477915 17.536 -14.1246 6.18852 -1.0909 -1.60944
lowerback -1.9037 -0.271518 0.0455735
upperback 3.31799 -0.427329 1.5551
thorax 4.50002 -0.240628 1.55529
lowerneck -13.8581 -0.374443 -2.67097
upperneck 28.1906 -0.559276 2.43185
head 11.4724 -0.237122 1.27761
rclavicle 7.8023e-015 -2.82274e-014
rhumerus -22.471 -18.922 -79.7558
rradius 22.2581
rwrist 36.1597
rhand -17.4052 -26.034
rfingers 7.12502
rthumb 8.84437 -55.8287
lclavicle 7.8023e-015 -2.82274e-014
lhumerus -20.0398 6.13634 85.14
lradius 16.8268
lwrist -2.7172
lhand -23.6925 -2.73006
lfingers 7.12502
lthumb 2.77431 27.2316
rfemur -13.1999 -2.15179 19.3236
rtibia 21.3796
rfoot -13.3956 -3.14762
rtoes 6.19793
lfemur -12.68 7.32456 -17.8662
ltibia 20.0663
lfoot -11.3701 5.01851
ltoes -0.501592
74
root 0.477452 17.5361 -14.1255 6.18808 -1.08751 -1.60961
lowerback -1.89858 -0.27068 0.0478395
upperback 3.3222 -0.426261 1.55382
thorax 4.50144 -0.240015 1.55278
lowerneck -13.8563 -0.37237 -2.67614
upperneck 28.2041 -0.55464 2.4303
head 11.4771 -0.235818 1.27873
rclavicle 2.78299e-015 7.35503e-015
rhumerus -22.4634 -18.9159 -79.7614
rradius 22.2626
rwrist 36.1559
rhand -17.3988 -26.0441
rfingers 7.12502
rthumb 8.85053 -55.8385
lclavicle 2.78299e-015 7.35503e-015
lhumerus -20.0327 6.14878 85.1456
lradius 16.8265
lwrist -2.72702
lhand -23.682 -2.73764
lfingers 7.12502
lthumb 2.78451 27.2239
rfemur -13.2036 -2.14633 19.3252
rtibia 21.3851
rfoot -13.3976 -3.15263
rtoes 6.23008
lfemur -12.6833 7.32487 -17.8638
ltibia 20.0667
lfoot -11.3697 5.01119
ltoes -0.487822
75
root 0.477013 17.5361 -14.1264 6.18771 -1.08463 -1.61015
lowerback -1.8939 -0.269366 0.0510748
upperback 3.3261 -0.424582 1.55215
thorax 4.50274 -0.239055 1.54935
lowerneck -13.8546 -0.370701 -2.68141
upperneck 28.2179 -0.550637 2.42905
head 11.482 -0.234774 1.27988
rclavicle -8.44835e-016 -8.54774e-015
rhumerus -22.4568 -18.9038 -79.7684
rradius 22.2685
rwrist 36.1419
rhand -17.3943 -26.0482
rfingers 7.12502
rthumb 8.85482 -55.8424
lclavicle -8.44835e-016 -8.54774e-015
lhumerus -20.0275 6.14975 85.1535
lradius 16.8298
lwrist -2.72158
lhand -23.676 -2.75792
lfingers 7.12502
lthumb 2.79028 27.2036
rfemur -13.2069 -2.14199 19.3272
rtibia 21.3892
rfoot -13.3992 -3.15593
rtoes 6.25911
lfemur -12.6856 7.32593 -17.8611
ltibia 20.066
lfoot -11.3702 5.00332
ltoes -0.46619
76
root 0.476612 17.5362 -14.1272 6.18812 -1.08288 -1.6097
lowerback -1.89065 -0.26732 0.0541496
upperback 3.32953 -0.421885 1.5495
thorax 4.50435 -0.237575 1.54505
lowerneck -13.8565 -0.368312 -2.68357
upperneck 28.2323 -0.546416 2.42802
head 11.4878 -0.233254 1.28064
rclavicle -9.24349e-015 2.68359e-014
rhumerus -22.4511 -18.8891 -79.7764
rradius 22.2763
rwrist 36.1217
rhand -17.3934 -26.0477
rfingers 7.12502
rthumb 8.85573 -55.8419
lclavicle -9.24349e-015 2.68359e-014
lhumerus -20.0227 6.14359 85.1624
lradius 16.8345
lwrist -2.71078
lhand -23.6698 -2.77432
lfingers 7.12502
lthumb 2.79621 27.1871
rfemur -13.2111 -2.13857 19.3282
rtibia 21.3926
rfoot -13.3995 -3.15915
rtoes 6.27246
lfemur -12.6877 7.32965 -17.8599
ltibia 20.0641
lfoot -11.3709 4.99546
ltoes -0.450069
77
root 0.476231 17.5362 -14.1279 6.18912 -1.08197 -1.60849
lowerback -1.88916 -0.264956 0.0573169
upperback 3.33281 -0.418744 1.54592
thorax 4.50678 -0.235855 1.53977
lowerneck -13.8601 -0.366483 -2.68721
upperneck 28.2473 -0.543278 2.42941
head 11.4942 -0.232073 1.2824
rclavicle -1.63997e-015 9.54166e-015
rhumerus -22.4457 -18.8804 -79.7837
rradius 22.2824
rwrist 36.1076
rhand -17.396 -26.0395
rfingers 7.12502
rthumb 8.85319 -55.8337
lclavicle -1.63997e-015 9.54166e-015
lhumerus -20.0201 6.1312 85.172
lradius 16.8433
lwrist -2.69343
lhand -23.675 -2.80175
lfingers 7.12502
lthumb 2.79122 27.1597
rfemur -13.2166 -2.13662 19.3284
rtibia 21.3963
rfoot -13.3986 -3.16221
rtoes 6.27458
lfemur -12.6897 7.33187 -17.8597
ltibia 20.0613
lfoot -11.371 4.98944
ltoes -0.428832
78
root 0.475815 17.5362 -14.1286 6.19075 -1.08106 -1.60683
lowerback -1.88832 -0.262899 0.0595477
upperback 3.33575 -0.415975 1.54231
thorax 4.50923 -0.23435 1.53495
lowerneck -13.8647 -0.364506 -2.69227
upperneck 28.2618 -0.540045 2.43257
head 11.5007 -0.230777 1.28508
rclavicle 3.97569e-016 9.74045e-015
rhumerus -22.4404 -18.8727 -79.7911
rradius 22.2891
rwrist 36.0946
rhand -17.4013 -26.0298
rfingers 7.12502
rthumb 8.84814 -55.8243
lclavicle 3.97569e-016 9.74045e-015
lhumerus -20.0178 6.11296 85.1823
lradius 16.8528
lwrist -2.66931
lhand -23.6783 -2.81472
lfingers 7.12502
lthumb 2.788 27.1468
rfemur -13.2225 -2.13341 19.3279
rtibia 21.4008
rfoot -13.3993 -3.16427
rtoes 6.29417
lfemur -12.6926 7.33441 -17.8602
ltibia 20.0578
lfoot -11.3685 4.98582
ltoes -0.4303
79
root 0.475362 17.5362 -14.1294 6.19318 -1.08014 -1.6058
lowerback -1.88677 -0.261367 0.0615578
upperback 3.3377 -0.413891 1.53906
thorax 4.51027 -0.233191 1.53058
lowerneck -13.8744 -0.362158 -2.6948
upperneck 28.2795 -0.53622 2.43353
head 11.5094 -0.229209 1.28664
rclavicle -7.45443e-015 6.16232e-015
rhumerus -22.4353 -18.8656 -79.7988
rradius 22.2965
rwrist 36.0826
rhand -17.4036 -26.0257
rfingers 7.12502
rthumb 8.84588 -55.8203
lclavicle -7.45443e-015 6.16232e-015
lhumerus -20.0171 6.09736 85.1916
lradius 16.8618
lwrist -2.64809
lhand -23.6868 -2.82748
lfingers 7.12502
lthumb 2.77983 27.1341
rfemur -13.2301 -2.12971 19.3284
rtibia 21.4059
rfoot -13.3995 -3.16826
rtoes 6.30699
lfemur -12.6967 7.33539 -17.8601
ltibia 20.0545
lfoot -11.3648 4.98439
ltoes -0.439013
80
root 0.474863 17.5362 -14.1301 6.1962 -1.07781 -1.60539
lowerback -1.88415 -0.261118 0.0630812
upperback 3.33859 -0.413518 1.53682
thorax 4.50967 -0.232911 1.52745
lowerneck -13.8821 -0.359805 -2.69929
upperneck 28.2949 -0.531579 2.43343
head 11.5168 -0.227623 1.28822
rclavicle 6.36111e-015 -6.55989e-015
rhumerus -22.4281 -18.8591 -79.8061
rradius 22.3008
rwrist 36.0747
rhand -17.4069 -26.0235
rfingers 7.12502
rthumb 8.84274 -55.8183
lclavicle 6.36111e-015 -6.55989e-015
lhumerus -20.0186 6.08631 85.2
lradius 16.8704
lwrist -2.63085
lhand -23.6952 -2.836
lfingers 7.12502
lthumb 2.77176 27.1257
rfemur -13.2385 -2.12548 19.3301
rtibia 21.4113
rfoot -13.3999 -3.17366
rtoes 6.31931
lfemur -12.7026 7.33354 -17.859
ltibia 20.0515
lfoot -11.3581 4.98503
ltoes -0.462346
81
root 0.474302 17.5362 -14.1311 6.20038 -1.07473 -1.60668
lowerback -1.87993 -0.261468 0.0647515
upperback 3.33762 -0.413969 1.53613
thorax 4.50625 -0.23305 1.52578
lowerneck -13.886 -0.358175 -2.70925
upperneck 28.3085 -0.527454 2.43625
head 11.5227 -0.226502 1.29173
rclavicle 6.11263e-015 -7.95139e-015
rhumerus -22.4222 -18.8512 -79.8121
rradius 22.3054
rwrist 36.0681
rhand -17.412 -26.0209
rfingers 7.12502
rthumb 8.83783 -55.8158
lclavicle 6.11263e-015 -7.95139e-015
lhumerus -20.0221 6.07749 85.2085
lradius 16.8782
lwrist -2.61673
lhand -23.7019 -2.83391
lfingers 7.12502
lthumb 2.76524 27.1279
rfemur -13.2467 -2.1176 19.3332
rtibia 21.4165
rfoot -13.4031 -3.17706
rtoes 6.37181
lfemur -12.7115 7.33095 -17.856
ltibia 20.0496
lfoot -11.35 4.98563
ltoes -0.488715
82
root 0.473747 17.5363 -14.132 6.20462 -1.07044 -1.60728
lowerback -1.87575 -0.262258 0.0653
upperback 3.33652 -0.414973 1.53573
thorax 4.50274 -0.233507 1.52501
lowerneck -13.8922 -0.356557 -2.71739
upperneck 28.3215 -0.522907 2.43621
head 11.5289 -0.225343 1.29392
rclavicle 3.52843e-015 1.23246e-014
rhumerus -22.416 -18.8459 -79.8167
rradius 22.3091
rwrist 36.0646
rhand -17.4169 -26.0193
rfingers 7.12502
rthumb 8.83309 -55.8145
lclavicle 3.52843e-015 1.23246e-014
lhumerus -20.024 6.07141 85.2166
lradius 16.8808
lwrist -2.61054
lhand -23.7056 -2.8303
lfingers 7.12502
lthumb 2.76168 27.1316
rfemur -13.2553 -2.11237 19.336
rtibia 21.421
rfoot -13.406 -3.18195
rtoes 6.40032
lfemur -12.7212 7.32756 -17.8539
ltibia 20.0488
lfoot -11.3434 4.98559
ltoes -0.513402
83
root 0.473213 17.5364 -14.133 6.20906 -1.06515 -1.60708
lowerback -1.87129 -0.263039 0.065417
upperback 3.33533 -0.415934 1.53513
thorax 4.49899 -0.233953 1.52427
lowerneck -13.8963 -0.357744 -2.73317
upperneck 28.3327 -0.522033 2.4418
head 11.5341 -0.225954 1.29898
rclavicle -2.43511e-015 6.36111e-015
rhumerus -22.4108 -18.8384 -79.8214
rradius 22.3146
rwrist 36.0564
rhand -17.4239 -26.0144
rfingers 7.12502
rthumb 8.82634 -55.8099
lclavicle -2.43511e-015 6.36111e-015
lhumerus -20.0239 6.06212 85.2253
lradius 16.8822
lwrist -2.60325
lhand -23.7086 -2.82582
lfingers 7.12502
lthumb 2.75875 27.1361
rfemur -13.2638 -2.1104 19.3378
rtibia 21.4252
rfoot -13.4098 -3.18244
rtoes 6.44293
lfemur -12.7314 7.32324 -17.8528
ltibia 20.0486
lfoot -11.3381 4.98475
ltoes -0.527454
